<svg width="25" height="24" viewBox="0 0 25 24" fill="none" xmlns="http://www.w3.org/2000/svg">
<path d="M16.5234 2H8.14337C4.50337 2 2.33337 4.17 2.33337 7.81V16.18C2.33337 19.83 4.50337 22 8.14337 22H16.5134C20.1534 22 22.3234 19.83 22.3234 16.19V7.81C22.3334 4.17 20.1634 2 16.5234 2ZM12.3334 18.25C10.5434 18.25 9.14337 17.36 8.19337 16.48V17.19C8.19337 17.6 7.85337 17.94 7.44337 17.94C7.03337 17.94 6.69337 17.6 6.69337 17.19V14.44C6.69337 14.03 7.03337 13.69 7.44337 13.69H9.92337C10.3334 13.69 10.6734 14.03 10.6734 14.44C10.6734 14.85 10.3334 15.19 9.92337 15.19H9.02337C9.76337 15.93 10.9134 16.75 12.3334 16.75C14.9534 16.75 17.0834 14.62 17.0834 12C17.0834 11.59 17.4234 11.25 17.8334 11.25C18.2434 11.25 18.5834 11.59 18.5834 12C18.5834 15.45 15.7834 18.25 12.3334 18.25ZM18.5834 9.54C18.5834 9.57 18.5834 9.6 18.5834 9.62C18.5734 9.73 18.5434 9.83 18.4934 9.92C18.4434 10.01 18.3734 10.09 18.2834 10.16C18.2134 10.21 18.1334 10.25 18.0434 10.28C17.9734 10.3 17.9034 10.31 17.8334 10.31H15.4034C14.9934 10.31 14.6534 9.97 14.6534 9.56C14.6534 9.15 14.9934 8.81 15.4034 8.81H16.2334C15.4334 8.07 14.1434 7.25 12.3534 7.25C9.73337 7.25 7.60337 9.38 7.60337 12C7.60337 12.41 7.26337 12.75 6.85337 12.75C6.44337 12.75 6.08337 12.41 6.08337 12C6.08337 8.55 8.88337 5.75 12.3334 5.75C14.4834 5.75 16.0634 6.68 17.0834 7.57V6.81C17.0834 6.4 17.4234 6.06 17.8334 6.06C18.2434 6.06 18.5834 6.4 18.5834 6.81V9.54Z" fill="white"/>
</svg>
