<svg width="25" height="24" viewBox="0 0 25 24" fill="none" xmlns="http://www.w3.org/2000/svg">
<path d="M19.4766 6.24998H20.8366C20.6466 5.97998 20.4466 5.72998 20.2366 5.47998L19.4766 6.24998Z" fill="white"/>
<path d="M19.1866 4.41982C18.9366 4.20982 18.6866 4.00982 18.4166 3.81982V5.17982L19.1866 4.41982Z" fill="white"/>
<path d="M20.2466 5.47994L23.1966 2.52994C23.4866 2.23994 23.4866 1.75994 23.1966 1.46994C22.9066 1.17994 22.4266 1.17994 22.1366 1.46994L19.1866 4.41994C19.5666 4.74994 19.9166 5.10994 20.2466 5.47994Z" fill="white"/>
<path d="M18.4166 3C18.4166 2.59 18.0766 2.25 17.6666 2.25C17.2666 2.25 16.9466 2.57 16.9266 2.96C17.4466 3.21 17.9466 3.49 18.4166 3.82V3Z" fill="white"/>
<path d="M22.4166 7C22.4166 6.59 22.0766 6.25 21.6666 6.25H20.8366C21.1666 6.72 21.4566 7.22 21.6966 7.74C22.0966 7.72 22.4166 7.4 22.4166 7Z" fill="white"/>
<path d="M13.4166 14.7498H13.7166C14.1066 14.7498 14.4166 14.3998 14.4166 13.9698C14.4166 13.4298 14.2666 13.3498 13.9266 13.2298L13.4166 13.0498V14.7498Z" fill="white"/>
<path d="M21.7066 7.74C21.6966 7.74 21.6866 7.75 21.6666 7.75H17.6666C17.5666 7.75 17.4766 7.73 17.3766 7.69C17.1966 7.61 17.0466 7.47 16.9666 7.28C16.9366 7.19 16.9166 7.1 16.9166 7V3C16.9166 2.99 16.9266 2.98 16.9266 2.96C15.6266 2.35 14.1866 2 12.6666 2C7.14663 2 2.66663 6.48 2.66663 12C2.66663 17.52 7.14663 22 12.6666 22C18.1866 22 22.6666 17.52 22.6666 12C22.6666 10.48 22.3166 9.04 21.7066 7.74ZM14.4166 11.82C15.0566 12.04 15.9166 12.51 15.9166 13.98C15.9166 15.23 14.9266 16.26 13.7166 16.26H13.4166V16.51C13.4166 16.92 13.0766 17.26 12.6666 17.26C12.2566 17.26 11.9166 16.92 11.9166 16.51V16.26H11.8366C10.5066 16.26 9.41663 15.14 9.41663 13.76C9.41663 13.34 9.75663 13 10.1666 13C10.5766 13 10.9166 13.34 10.9166 13.75C10.9166 14.3 11.3266 14.75 11.8366 14.75H11.9166V12.53L10.9166 12.18C10.2766 11.96 9.41663 11.49 9.41663 10.02C9.41663 8.77 10.4066 7.74 11.6166 7.74H11.9166V7.5C11.9166 7.09 12.2566 6.75 12.6666 6.75C13.0766 6.75 13.4166 7.09 13.4166 7.5V7.75H13.4966C14.8266 7.75 15.9166 8.87 15.9166 10.25C15.9166 10.66 15.5766 11 15.1666 11C14.7566 11 14.4166 10.66 14.4166 10.25C14.4166 9.7 14.0066 9.25 13.4966 9.25H13.4166V11.47L14.4166 11.82Z" fill="white"/>
<path d="M10.9166 10.03C10.9166 10.57 11.0666 10.65 11.4066 10.77L11.9166 10.95V9.25H11.6166C11.2366 9.25 10.9166 9.6 10.9166 10.03Z" fill="white"/>
</svg>
