<svg width="16" height="24" viewBox="0 0 16 24" fill="none" xmlns="http://www.w3.org/2000/svg">
<path fill-rule="evenodd" clip-rule="evenodd" d="M2.72893 24C1.63693 24 0.743918 23.107 0.743918 22.015V20.291H15.2569V22.015C15.2569 23.107 14.3639 24 13.2719 24H2.72893ZM0.74292 19.691V3.84783H15.2559V19.691H0.74292ZM0.74292 3.24802V1.98501C0.74292 0.89301 1.63693 0 2.72893 0H13.2721C14.3641 0 15.2571 0.89301 15.2571 1.98501V3.24802L0.743099 3.24902L0.74292 3.24802ZM8.00005 21.09C7.71105 21.09 7.45005 21.207 7.26105 21.396C7.07204 21.585 6.95505 21.846 6.95505 22.135C6.95505 22.424 7.07205 22.685 7.26105 22.874C7.45005 23.063 7.71205 23.18 8.00005 23.18C8.28905 23.18 8.55004 23.063 8.73905 22.874C8.92805 22.685 9.04504 22.424 9.04504 22.135C9.04504 21.846 8.92804 21.585 8.73905 21.396C8.55005 21.207 8.28905 21.09 8.00005 21.09ZM8.31506 21.821C8.23406 21.74 8.12305 21.691 8.00005 21.691C7.87704 21.691 7.76605 21.741 7.68504 21.821C7.60404 21.902 7.55504 22.013 7.55504 22.1361C7.55504 22.2591 7.60504 22.3701 7.68504 22.4511C7.76604 22.5321 7.87704 22.5811 8.00005 22.5811C8.12305 22.5811 8.23405 22.5311 8.31506 22.4511C8.39606 22.3701 8.44506 22.2591 8.44506 22.1361C8.44506 22.013 8.39506 21.9011 8.31506 21.821ZM5.93404 2.01704H8.70909C8.8751 2.01704 9.0091 1.88303 9.0091 1.71703C9.0091 1.55103 8.8751 1.41702 8.70909 1.41702H5.93404C5.76804 1.41702 5.63403 1.55102 5.63403 1.71703C5.63403 1.88203 5.76803 2.01704 5.93404 2.01704ZM9.57003 2.01704H10.066C10.232 2.01704 10.366 1.88303 10.366 1.71703C10.366 1.55103 10.232 1.41702 10.066 1.41702H9.57003C9.40403 1.41702 9.27002 1.55102 9.27002 1.71703C9.27002 1.88203 9.40502 2.01704 9.57003 2.01704Z" fill="white"/>
</svg>
