<svg width="24" height="24" viewBox="0 0 24 24" fill="none" xmlns="http://www.w3.org/2000/svg">
<path d="M20.5715 8.00073C20.5715 6.24364 19.6758 4.60871 18.1951 3.66464C16.7144 2.71967 14.8533 2.59646 13.2613 3.3368C11.6682 4.07713 10.5636 5.57925 10.332 7.32016C13.3373 7.93408 15.8132 10.0555 16.8805 12.9311C17.9444 12.6172 18.8797 11.9668 19.544 11.0786C20.2093 10.1904 20.5704 9.11047 20.5714 8.0004L20.5715 8.00073Z" fill="white"/>
<path d="M15.4287 0.000328798C13.4434 0.00247147 11.5298 0.741734 10.0588 2.07564C8.58778 3.40954 7.66529 5.24165 7.46924 7.21729C7.83458 7.16586 8.20316 7.14122 8.57171 7.14336C8.78277 7.14336 8.99492 7.14872 9.20063 7.16586C9.40098 5.66374 10.1381 4.28592 11.2749 3.28425C12.4116 2.28258 13.872 1.72536 15.3869 1.7157C16.9018 1.70499 18.3697 2.24284 19.5203 3.22852C20.6699 4.21422 21.4252 5.58346 21.647 7.08133C21.8677 8.58021 21.5409 10.1091 20.7245 11.385C19.9081 12.6621 18.6589 13.6007 17.2061 14.0282C17.3336 14.5939 17.4064 15.1693 17.4225 15.7489C19.9596 15.0953 22.0156 13.2418 22.9273 10.786C23.8401 8.33039 23.4919 5.58433 21.9962 3.43398C20.5016 1.28259 18.048 0 15.4286 0L15.4287 0.000328798Z" fill="white"/>
<path d="M9.54352 17.2848C9.52423 17.0363 9.37102 16.8177 9.14282 16.7148V17.8559C9.37103 17.753 9.52424 17.5344 9.54352 17.2848Z" fill="white"/>
<path d="M7.59998 14.7145C7.61926 14.9642 7.77247 15.1827 8.00067 15.2856V14.1445C7.77246 14.2474 7.61926 14.466 7.59998 14.7145Z" fill="white"/>
<path d="M0.571533 15.9991C0.571533 18.1216 1.41472 20.1561 2.9147 21.6561C4.41576 23.1561 6.45044 23.9993 8.57172 23.9993C10.693 23.9993 12.7276 23.1561 14.2287 21.6561C15.7287 20.1561 16.5719 18.1215 16.5719 15.9991C16.5719 13.8777 15.7287 11.8432 14.2287 10.3432C12.7277 8.84212 10.693 8 8.57172 8C6.45033 8.00214 4.41776 8.84533 2.918 10.3453C1.41823 11.8453 0.574742 13.8789 0.571533 15.9991ZM14.8576 15.9991C14.8576 17.6662 14.1955 19.2647 13.0159 20.4443C11.8374 21.6229 10.2388 22.285 8.57175 22.285C6.90468 22.285 5.30618 21.6229 4.1276 20.4443C2.94798 19.2647 2.28587 17.6662 2.28587 15.9991C2.28587 14.332 2.948 12.7335 4.1276 11.5549C5.30615 10.3764 6.90468 9.71428 8.57175 9.71428C10.2378 9.71535 11.8362 10.3786 13.0137 11.5571C14.1923 12.7357 14.8555 14.3331 14.8576 15.9991Z" fill="white"/>
<path d="M3.42896 16.0002C3.42896 17.3641 3.9711 18.6723 4.93535 19.6366C5.89961 20.6019 7.20782 21.143 8.57175 21.143C9.93569 21.143 11.2438 20.6019 12.2082 19.6366C13.1724 18.6724 13.7146 17.3642 13.7146 16.0002C13.7146 14.6363 13.1724 13.3281 12.2082 12.3638C11.2439 11.3996 9.93569 10.8574 8.57175 10.8574C7.20784 10.8596 5.90074 11.4017 4.93645 12.366C3.97326 13.3302 3.43002 14.6374 3.42896 16.0002ZM9.14275 12.5717V12.9349C10.0052 13.1031 10.6416 13.8371 10.6856 14.7145C10.6856 15.0306 10.4306 15.2867 10.1145 15.2867C9.79954 15.2867 9.54347 15.0306 9.54347 14.7145C9.52419 14.466 9.37098 14.2474 9.14278 14.1446V15.5074V15.5063C10.0052 15.6745 10.6417 16.4085 10.6856 17.2859C10.6417 18.1634 10.0052 18.8984 9.14278 19.0655V19.4287C9.14278 19.7448 8.88778 20.0009 8.57173 20.0009C8.25567 20.0009 8.00068 19.7448 8.00068 19.4287V19.0655C7.1382 18.8984 6.50179 18.1634 6.45785 17.2859C6.45785 16.9709 6.71285 16.7149 7.0289 16.7149C7.34389 16.7149 7.59995 16.9709 7.59995 17.2859C7.61924 17.5356 7.77245 17.7541 8.00065 17.857V16.4941C7.13818 16.327 6.50177 15.592 6.45783 14.7145C6.50175 13.8371 7.13818 13.1031 8.00065 12.9349V12.5717C8.00065 12.2567 8.25564 12.0007 8.5717 12.0007C8.88775 12.0007 9.14275 12.2567 9.14275 12.5717Z" fill="white"/>
</svg>
