<svg width="38" height="48" viewBox="0 0 38 48" fill="none" xmlns="http://www.w3.org/2000/svg">
<path d="M29.8015 0H0.199463V48H37.8005V7.999L29.8015 0Z" fill="#E8E8E8"/>
<path d="M31.4151 23.7382C30.8384 22.7103 28.8455 22.3873 27.9312 22.242C27.2105 22.1274 26.4748 22.0932 25.7459 22.0938C25.1736 22.09 24.6097 22.1182 24.053 22.1498C23.8478 22.1636 23.6447 22.1813 23.4418 22.1989C23.2337 21.9836 23.0327 21.7612 22.8381 21.5337C21.6 20.0681 20.6004 18.4061 19.7859 16.679C20.0021 15.8445 20.1752 14.9736 20.2797 14.0692C20.4704 12.4184 20.536 10.5371 19.9174 8.96325C19.7039 8.42006 19.1344 7.75877 18.4774 8.08807C17.7221 8.46677 17.5096 9.53969 17.448 10.3002C17.3985 10.915 17.4331 11.5313 17.5363 12.1358C17.6415 12.7444 17.8107 13.3222 17.995 13.8993C18.1669 14.4284 18.3564 14.9534 18.563 15.4734C18.432 15.8828 18.2928 16.2851 18.1467 16.6771C17.806 17.5705 17.4376 18.4192 17.0832 19.2357C16.8964 19.6405 16.7136 20.0368 16.5347 20.4242C15.9685 21.6678 15.3539 22.8886 14.6642 24.0687C13.0552 24.6362 11.6113 25.2942 10.4122 26.0674C9.76897 26.483 9.20077 26.9344 8.72756 27.4294C8.28078 27.8968 7.82673 28.5033 7.78699 29.1747C7.76467 29.5537 7.91475 29.9215 8.22522 30.1463C8.6522 30.4653 9.21802 30.4441 9.7134 30.3402C11.3362 29.9999 12.5823 28.6049 13.6435 27.4293C14.3744 26.6195 15.2064 25.5912 16.0767 24.3476C16.0786 24.3448 16.0805 24.3419 16.0825 24.3391C17.5751 23.8763 19.1996 23.4856 20.9237 23.1984C21.7113 23.0678 22.5199 22.9609 23.3445 22.8859C23.9245 23.429 24.5511 23.9236 25.2347 24.3367C25.7671 24.6642 26.3334 24.9408 26.9262 25.1471C27.5256 25.3429 28.1286 25.5028 28.7513 25.604C29.0657 25.649 29.3872 25.6694 29.7157 25.6571C30.4489 25.6293 31.5012 25.3482 31.5703 24.4586C31.5915 24.1863 31.5327 23.9475 31.4151 23.7382ZM13.8626 25.3705C13.5192 25.9024 13.188 26.3809 12.876 26.8018C12.1118 27.8417 11.2389 29.0767 9.97526 29.5385C9.73525 29.6262 9.41925 29.7168 9.08615 29.6972C8.78946 29.6797 8.49689 29.5488 8.51034 29.2119C8.51699 29.0355 8.60328 28.8106 8.73563 28.5896C8.88049 28.3472 9.05987 28.1249 9.25412 27.9205C9.67034 27.4832 10.1966 27.0594 10.802 26.667C11.7305 26.0646 12.8391 25.5223 14.0747 25.0385C14.0036 25.1509 13.9327 25.2627 13.8626 25.3705ZM18.1723 12.0307C18.077 11.4743 18.0626 10.9102 18.1212 10.3678C18.1503 10.0966 18.2056 9.83194 18.2855 9.58386C18.3533 9.37329 18.4996 8.8594 18.7329 8.79338C19.1176 8.68446 19.2359 9.5104 19.2794 9.74407C19.5273 11.0733 19.3089 12.5515 19.0114 13.8554C18.9641 14.0628 18.9113 14.2669 18.8573 14.4702C18.7652 14.2167 18.6773 13.9624 18.5964 13.7069C18.4223 13.1489 18.263 12.5843 18.1723 12.0307ZM20.8135 22.5239C19.3681 22.7583 17.9931 23.0652 16.7006 23.4276C16.8562 23.3841 17.5674 22.0363 17.726 21.7566C18.4734 20.4402 19.0849 19.0585 19.5242 17.6091C20.2999 19.1434 21.2415 20.6112 22.3981 21.9176C22.5047 22.0362 22.613 22.1533 22.7231 22.2691C22.075 22.3389 21.4371 22.4239 20.8135 22.5239ZM30.5887 24.3753C30.5358 24.6611 29.9255 24.8245 29.6407 24.8694C28.7991 25.0018 27.9087 24.8959 27.1032 24.6253C26.5505 24.4397 26.0174 24.1871 25.511 23.8831C25.0075 23.579 24.5365 23.2212 24.0962 22.8266C24.6391 22.794 25.1886 22.7727 25.7408 22.7831C26.2931 22.7887 26.8495 22.8165 27.3992 22.8882C28.43 23.0032 29.5851 23.357 30.3965 24.0259C30.5562 24.1578 30.6072 24.2743 30.5887 24.3753Z" fill="#FB3449"/>
<path d="M31.0394 3.99958H0.199463V0H29.8015L31.0394 3.99958Z" fill="#FB3449"/>
<path d="M15.0812 38.1816C15.0812 39.0303 14.831 39.6857 14.3304 40.148C13.8298 40.6105 13.119 40.8416 12.1976 40.8416H11.6208V43.3615H9.5687V35.7656H12.1977C13.1571 35.7656 13.8776 35.9752 14.3591 36.3943C14.8405 36.8134 15.0812 37.4091 15.0812 38.1816ZM11.621 39.1687H11.9951C12.3033 39.1687 12.5484 39.0822 12.7303 38.9089C12.9122 38.7357 13.0031 38.4966 13.0031 38.1918C13.0031 37.6792 12.7191 37.4229 12.151 37.4229H11.621V39.1687Z" fill="#A4A9AD"/>
<path d="M22.7396 39.4025C22.7396 40.6701 22.3905 41.647 21.6927 42.3328C20.9948 43.0186 20.0135 43.3615 18.7494 43.3615H16.2918V35.7656H18.9208C20.14 35.7656 21.0812 36.0774 21.7446 36.7008C22.4078 37.3243 22.7396 38.2249 22.7396 39.4025ZM20.6094 39.4753C20.6094 38.779 20.4717 38.2631 20.1964 37.927C19.9211 37.591 19.5028 37.4231 18.9416 37.4231H18.3442V41.6782H18.8015C19.4251 41.6782 19.8821 41.4972 20.1731 41.1351C20.464 40.7734 20.6094 40.2201 20.6094 39.4753Z" fill="#A4A9AD"/>
<path d="M26.1219 43.3615H24.1008V35.7656H28.5899V37.4126H26.1219V38.8622H28.3976V40.5091H26.1219V43.3615Z" fill="#A4A9AD"/>
<path d="M29.8015 7.999H37.8005L29.8015 0V7.999Z" fill="#D1D3D3"/>
</svg>
