<svg width="24" height="24" viewBox="0 0 24 24" fill="none" xmlns="http://www.w3.org/2000/svg">
<path d="M12.3745 2.18923V0.374482C12.3745 0.167772 12.2067 0 12 0C11.7906 0 11.6255 0.167785 11.6255 0.374482V2.18923C11.749 2.18521 11.8725 2.18252 12 2.18252C12.1275 2.18252 12.251 2.18655 12.3745 2.18923Z" fill="white"/>
<path d="M11.6254 21.8125V23.6272C11.6254 23.834 11.7905 24.0017 11.9998 24.0017C12.2066 24.0017 12.3743 23.8339 12.3743 23.6272V21.8125C12.2508 21.8165 12.1274 21.8192 11.9998 21.8192C11.8723 21.8192 11.7488 21.8152 11.6254 21.8125Z" fill="white"/>
<path d="M0.375825 11.625C0.166427 11.625 0.00134277 11.7928 0.00134277 11.9995C0.00134277 12.2062 0.166444 12.374 0.375825 12.374H2.19058C2.18655 12.2505 2.18386 12.127 2.18386 11.9995C2.18386 11.872 2.18789 11.7485 2.19058 11.625H0.375825Z" fill="white"/>
<path d="M23.6241 11.625H21.8093C21.8134 11.7485 21.816 11.872 21.816 11.9995C21.816 12.127 21.812 12.2505 21.8093 12.374H23.6241C23.8308 12.374 23.9986 12.2062 23.9986 11.9995C23.9999 11.7928 23.8308 11.625 23.6241 11.625Z" fill="white"/>
<path d="M19.4844 11.6238H21.8106C21.6213 6.50686 17.4912 2.37684 12.3743 2.1875V4.50965C12.3743 4.71904 12.2065 4.88011 11.9998 4.88011C11.7904 4.88011 11.6254 4.71903 11.6254 4.50965V2.1875C6.50845 2.37676 2.37842 6.50686 2.18909 11.6238H4.51123C4.71392 11.6238 4.8817 11.7916 4.8817 11.9983C4.8817 12.205 4.71391 12.3727 4.51123 12.3727H2.18909C2.37835 17.4897 6.50845 21.6197 11.6254 21.809V19.4869C11.6254 19.2775 11.7905 19.1164 11.9998 19.1164C12.2066 19.1164 12.3743 19.2775 12.3743 19.4869V21.809C17.4912 21.6198 21.6213 17.4897 21.8106 12.3727H19.4844C19.2777 12.3727 19.11 12.205 19.11 11.9983C19.11 11.7916 19.2777 11.6238 19.4844 11.6238ZM12.2817 18.6574C12.2025 18.6641 12.1233 18.6682 12.0441 18.6641H12.0374H11.9623H11.9555H11.8965C11.8656 18.6641 11.8347 18.6641 11.7998 18.6601C11.773 18.6641 11.7408 18.6641 11.7139 18.6601C11.6522 18.6561 11.5864 18.6494 11.522 18.6467C11.3086 18.6333 11.0965 18.6051 10.8831 18.5715C10.7421 18.5514 10.6012 18.5232 10.4642 18.4856C10.3918 18.4722 10.3233 18.4547 10.2548 18.4346C10.1246 18.3997 9.9931 18.3621 9.8629 18.3178C9.84948 18.3138 9.83874 18.3111 9.82532 18.3044C9.6978 18.2601 9.57163 18.2118 9.44678 18.1594C9.33403 18.1151 9.21993 18.0628 9.10987 18.0078C9.08302 17.9943 9.05483 17.9836 9.02799 17.9662C8.91121 17.9071 8.79443 17.8427 8.67767 17.7769C8.58102 17.7219 8.48572 17.6668 8.39579 17.6051C8.3582 17.546 8.33672 17.4776 8.33672 17.4064V14.4104C8.33672 14.2037 8.50451 14.0359 8.71121 14.0359C8.91389 14.0359 9.08167 14.2037 9.08167 14.4104V17.146C9.86152 17.593 10.7273 17.8507 11.6239 17.9017L11.6253 13.7297C11.6253 13.5204 11.7904 13.3553 11.9998 13.3553C12.2065 13.3553 12.3742 13.5204 12.3742 13.7297V17.9041C13.3327 17.845 14.2602 17.5538 15.0816 17.045V12.1309C15.0816 11.9215 15.2494 11.7564 15.4521 11.7564C15.6588 11.7564 15.8266 11.9215 15.8266 12.1309V16.508C17.146 15.3912 17.9152 13.7523 17.9152 11.9993C17.9152 8.7308 15.2628 6.0786 11.9945 6.0786C8.73007 6.0786 6.07763 8.73097 6.07763 11.9993C6.07763 12.3295 6.10179 12.6597 6.15683 12.9791L8.52729 10.6087C8.67494 10.4637 8.91253 10.4637 9.06018 10.6087L10.0602 11.6127L13.1327 8.54424H11.483C11.2763 8.54424 11.1085 8.37914 11.1085 8.16976C11.1085 7.96305 11.2763 7.79528 11.483 7.79528H14.0334C14.0401 7.79528 14.0468 7.7993 14.0535 7.7993C14.0709 7.7993 14.0884 7.80333 14.1045 7.80602C14.1287 7.81004 14.1528 7.81944 14.173 7.82615C14.1971 7.83286 14.2173 7.8436 14.2414 7.86105C14.2589 7.87447 14.279 7.88789 14.2964 7.90937C14.3649 7.97514 14.4065 8.06776 14.4065 8.17112V10.5832C14.4065 10.7859 14.2387 10.9537 14.032 10.9537C13.8253 10.9537 13.6576 10.7859 13.6576 10.5832V9.07447L10.3247 12.4074C10.1837 12.5483 9.93273 12.5483 9.79579 12.4074L8.79578 11.4073L6.20787 13.9912C6.13539 14.0664 6.04009 14.104 5.94344 14.104C5.8468 14.104 5.7515 14.0664 5.67901 13.9912C5.63472 13.9469 5.60385 13.8919 5.5864 13.8301C5.56895 13.7751 5.5515 13.7201 5.53807 13.6624C5.50317 13.5281 5.4723 13.3912 5.44545 13.253C5.43472 13.1979 5.42532 13.1402 5.41861 13.0852C5.40787 13.0369 5.40116 12.9859 5.39445 12.9335V12.9295C5.38103 12.8476 5.37431 12.7644 5.36358 12.6785C5.35284 12.5684 5.34344 12.4557 5.33942 12.3416C5.3327 12.2288 5.32868 12.1147 5.32868 12.002L5.33002 11.9979C5.33002 10.159 6.07634 8.49605 7.28572 7.2865C7.36089 7.21133 7.4374 7.13884 7.5166 7.06636C7.67499 6.9214 7.84009 6.78448 8.0119 6.65697C8.60922 6.20998 9.28706 5.85966 10.0146 5.63012C10.3273 5.53079 10.6535 5.45428 10.9837 5.4073C11.3139 5.35897 11.6535 5.33213 11.9971 5.33213C12.3407 5.33213 12.6804 5.35897 13.0105 5.4073C13.3407 5.45562 13.6669 5.53079 13.9797 5.63012C14.7085 5.86099 15.3891 6.21132 15.9864 6.65697C16.1582 6.78448 16.3233 6.9214 16.4817 7.06636C16.5609 7.13885 16.636 7.21133 16.7125 7.2865C17.9219 8.49588 18.6682 10.159 18.6682 11.9979C18.6682 12.1214 18.6642 12.2422 18.6548 12.3657C18.6548 12.414 18.6508 12.4624 18.6441 12.5107C18.6401 12.6073 18.6333 12.6999 18.6199 12.7926C18.6159 12.8167 18.6159 12.8409 18.6092 12.865C18.5984 12.9617 18.585 13.0543 18.5676 13.1469C18.5568 13.2087 18.5474 13.2677 18.5327 13.3295L18.5219 13.3805C18.5018 13.4771 18.4803 13.5697 18.4562 13.6624C18.4213 13.7926 18.3837 13.9241 18.3434 14.0476C18.3125 14.1469 18.2776 14.2463 18.2401 14.3469C18.2199 14.4087 18.1958 14.4704 18.1649 14.5322C18.1542 14.563 18.1407 14.5939 18.1273 14.6248C18.0924 14.7147 18.0521 14.8033 18.0065 14.8892C17.9139 15.0812 17.8105 15.2704 17.7005 15.4556C17.6454 15.5456 17.5904 15.6382 17.5246 15.7241C17.4763 15.8033 17.4253 15.8785 17.3662 15.9509C17.3488 15.9751 17.3313 15.9993 17.3112 16.0234C17.2602 16.0986 17.2011 16.1711 17.1394 16.2395C17.0186 16.3872 16.8924 16.5322 16.7541 16.6691C16.7166 16.7067 16.679 16.7442 16.6374 16.7818C16.5582 16.861 16.4763 16.9362 16.3904 17.0127C16.3796 17.0194 16.3703 17.0301 16.3595 17.0369C16.2629 17.1268 16.1609 17.2046 16.0575 17.2838C15.9984 17.3322 15.9367 17.3805 15.8749 17.4207C15.8239 17.4556 15.7716 17.4892 15.7206 17.5241C15.7098 17.5348 15.7005 17.5442 15.6857 17.551C15.6682 17.5644 15.6508 17.5778 15.6347 17.5858C15.6239 17.5926 15.6105 17.5993 15.5998 17.6033C15.534 17.6476 15.4696 17.6892 15.4011 17.7308C15.3327 17.7724 15.2642 17.81 15.1944 17.8476C15.1461 17.8785 15.0951 17.9026 15.0468 17.9268C15.0199 17.9442 14.9917 17.9577 14.9609 17.9711C14.8991 18.002 14.8374 18.0328 14.7756 18.057C14.7031 18.0919 14.6307 18.1228 14.5595 18.1536C14.487 18.1885 14.4145 18.2154 14.3434 18.2395C14.2709 18.2664 14.1958 18.2905 14.1233 18.3187C13.9958 18.363 13.8656 18.4006 13.7354 18.4395H13.7313C13.632 18.4664 13.5327 18.4905 13.432 18.512C13.2052 18.5603 12.9756 18.5979 12.7447 18.6248C12.6696 18.6355 12.5904 18.6382 12.5139 18.6449C12.4401 18.6503 12.3609 18.6543 12.2817 18.657L12.2817 18.6574Z" fill="white"/>
</svg>
