<svg width="24" height="22" viewBox="0 0 24 22" fill="none" xmlns="http://www.w3.org/2000/svg">
<path d="M6.1916 16.8174H2.84225C2.0597 16.8174 1.34888 16.4978 0.834204 15.9832C0.319506 15.4685 0 14.7567 0 13.9751V3.35324C0 2.57068 0.319531 1.85986 0.834204 1.34519C1.34888 0.830517 2.06065 0.510986 2.84225 0.510986H14.9661C15.7487 0.510986 16.4595 0.830517 16.9742 1.34519C17.4889 1.85989 17.8084 2.57164 17.8084 3.35324V5.1824H21.1578C21.9403 5.1824 22.6511 5.50193 23.1658 6.0166C23.6805 6.5313 24 7.24305 24 8.02465V18.6465C24 19.4291 23.6805 20.1399 23.1658 20.6546C22.6511 21.1693 21.9394 21.4888 21.1578 21.4888H9.03385C8.2513 21.4888 7.54048 21.1692 7.02581 20.6546C6.51113 20.1399 6.1916 19.4291 6.1916 18.6465V16.8174ZM7.31666 10.1025L11.1127 6.30643H9.03388C8.56223 6.30643 8.13269 6.49967 7.82178 6.81155C7.50992 7.12341 7.31666 7.552 7.31666 8.02365V10.1025ZM12.7036 6.30643L7.31666 11.6934V14.8782L15.8884 6.30643H12.7036ZM16.6844 11.8781L12.8702 15.6923H14.9672C15.4388 15.6923 15.8684 15.499 16.1793 15.1871C16.4912 14.8753 16.6844 14.4467 16.6844 13.975L16.6844 11.8781ZM11.2793 15.6923L16.6844 10.2872V7.10238L8.09351 15.6932H11.2783L11.2793 15.6923Z" fill="white"/>
</svg>
