<svg width="24" height="24" viewBox="0 0 24 24" fill="none" xmlns="http://www.w3.org/2000/svg">
<path d="M2.85335 10.4257L5.69271 11.603C5.37257 12.4113 5.1172 13.2437 4.92902 14.0924L4.82132 14.5819L8.89188 18.6549L9.38143 18.5497C10.2301 18.3615 11.0625 18.1061 11.8708 17.786L13.0481 20.6253C13.0597 20.6535 13.078 20.6783 13.1015 20.6976C13.125 20.7169 13.153 20.73 13.1828 20.7359C13.2127 20.7417 13.2435 20.74 13.2725 20.731C13.3016 20.7219 13.3279 20.7058 13.3492 20.6841L15.1287 18.9046C15.4191 18.6142 15.6454 18.2662 15.7929 17.8829C15.9405 17.4997 16.0061 17.0898 15.9854 16.6796L15.9217 15.5365C19.2164 13.1035 22.5502 8.8371 23.4583 1.39112C23.484 1.20444 23.4663 1.01433 23.4065 0.835605C23.3468 0.656884 23.2465 0.494384 23.1136 0.360772C22.9807 0.227159 22.8187 0.126043 22.6403 0.0653053C22.4619 0.00456765 22.2719 -0.0141508 22.0851 0.010609C14.6416 0.926057 10.3728 4.2623 7.93972 7.54715L6.79908 7.4884C6.38982 7.46613 5.98043 7.52976 5.59723 7.6752C5.21404 7.82064 4.86552 8.04466 4.5741 8.33287L2.79461 10.1124C2.76995 10.1333 2.75127 10.1604 2.74047 10.1909C2.72966 10.2214 2.72711 10.2543 2.73308 10.2861C2.73904 10.3179 2.75331 10.3475 2.77443 10.372C2.79555 10.3966 2.82278 10.4151 2.85335 10.4257ZM14.2695 6.08831C14.5779 5.78098 14.9705 5.57193 15.3976 5.48755C15.8247 5.40317 16.2673 5.44724 16.6693 5.6142C17.0714 5.78116 17.415 6.06352 17.6568 6.42563C17.8985 6.78774 18.0275 7.21335 18.0275 7.64873C18.0275 8.08411 17.8985 8.50972 17.6568 8.87183C17.415 9.23394 17.0714 9.5163 16.6693 9.68326C16.2673 9.85022 15.8247 9.89429 15.3976 9.80991C14.9705 9.72553 14.5779 9.51648 14.2695 9.20915C14.0642 9.00449 13.9012 8.7613 13.79 8.49353C13.6788 8.22576 13.6216 7.93867 13.6216 7.64873C13.6216 7.35879 13.6788 7.0717 13.79 6.80393C13.9012 6.53616 14.0642 6.29297 14.2695 6.08831ZM2.3222 18.9805C1.85102 18.8151 1.34504 18.7746 0.853562 18.863C0.809881 18.8724 0.764519 18.8706 0.721713 18.8578C0.678907 18.845 0.640056 18.8215 0.608789 18.7895C0.570029 18.7509 0.544074 18.7013 0.534442 18.6475C0.524809 18.5936 0.531965 18.5381 0.55494 18.4885C1.0763 17.3674 2.45927 15.1131 4.96329 16.9342C4.97637 16.9459 4.98683 16.9602 4.994 16.9762C5.00116 16.9923 5.00486 17.0096 5.00486 17.0272C5.00486 17.0447 5.00116 17.0621 4.994 17.0781C4.98683 17.0941 4.97637 17.1085 4.96329 17.1202C4.62805 17.3842 4.35965 17.7234 4.17978 18.1103C3.99991 18.4973 3.91363 18.9211 3.9279 19.3476C3.92972 19.3977 3.95042 19.4452 3.98584 19.4806C4.02126 19.516 4.06877 19.5367 4.11882 19.5385C4.54349 19.5556 4.96623 19.4728 5.35308 19.2968C5.73994 19.1208 6.08011 18.8565 6.34625 18.5252C6.35796 18.5109 6.37271 18.4993 6.38943 18.4914C6.40615 18.4834 6.42443 18.4793 6.44294 18.4793C6.46145 18.4793 6.47972 18.4834 6.49644 18.4914C6.51317 18.4993 6.52791 18.5109 6.53962 18.5252C6.8872 18.9389 7.84426 20.29 6.78439 21.5946C6.3217 22.1508 5.65873 22.5025 4.93881 22.5737C3.91077 22.6839 2.01133 23.0192 1.23541 23.9053C1.20426 23.9422 1.16368 23.9699 1.11799 23.9856C1.07231 24.0012 1.02323 24.0042 0.975995 23.9942C0.92876 23.9841 0.885138 23.9614 0.849782 23.9285C0.814425 23.8956 0.788661 23.8538 0.775235 23.8074C0.50109 22.8723 0.0751857 20.782 2.3222 18.9805Z" fill="white"/>
</svg>
