<svg width="24" height="24" viewBox="0 0 24 24" fill="none" xmlns="http://www.w3.org/2000/svg">
<path d="M11.9386 5.40449e-06C11.8459 -0.000357345 11.7541 0.0175441 11.6683 0.0526877C11.5825 0.0878313 11.5044 0.139529 11.4386 0.204828C11.3728 0.270128 11.3205 0.34775 11.2847 0.433264C11.2489 0.518779 11.2303 0.610509 11.2299 0.703219V4.59571C11.2295 4.68888 11.2476 4.78121 11.2831 4.86736C11.3186 4.95351 11.3708 5.03179 11.4367 5.09767C11.5026 5.16356 11.5808 5.21575 11.667 5.25123C11.7531 5.28672 11.8455 5.3048 11.9386 5.30444C12.0315 5.30426 12.1233 5.28577 12.209 5.25004C12.2947 5.21431 12.3725 5.16203 12.4379 5.0962C12.5034 5.03037 12.5552 4.95228 12.5904 4.8664C12.6256 4.78052 12.6436 4.68854 12.6432 4.59571V0.703219C12.6425 0.516701 12.568 0.33805 12.436 0.20629C12.3039 0.0745302 12.1252 0.000368849 11.9386 5.40449e-06ZM3.60073 2.89145C3.5077 2.89147 3.41559 2.90987 3.32969 2.9456C3.24379 2.98133 3.1658 3.03369 3.10021 3.09966C2.96869 3.23194 2.89486 3.41089 2.89486 3.59742C2.89486 3.78396 2.96869 3.96291 3.10021 4.09519L5.85239 6.85289C5.918 6.91884 5.99599 6.97118 6.08189 7.00689C6.16778 7.04261 6.25989 7.06099 6.35292 7.06099C6.44594 7.06099 6.53805 7.04261 6.62395 7.00689C6.70984 6.97118 6.78784 6.91884 6.85344 6.85289C6.91939 6.78728 6.97173 6.70929 7.00744 6.62339C7.04316 6.5375 7.06154 6.44539 7.06154 6.35237C7.06154 6.25934 7.04316 6.16723 7.00744 6.08133C6.97173 5.99544 6.91939 5.91745 6.85344 5.85184L4.09574 3.09966C3.9646 2.96776 3.78672 2.89294 3.60073 2.89145ZM8.96721 8.23312C8.85597 8.22877 8.74528 8.25079 8.64417 8.29739C8.54306 8.34398 8.4544 8.41382 8.38543 8.50121C8.31645 8.5886 8.26913 8.69106 8.2473 8.80023C8.22548 8.9094 8.22979 9.02218 8.25986 9.12937L12.2254 23.4818C12.2623 23.6153 12.3376 23.735 12.4419 23.826C12.5463 23.9171 12.6751 23.9754 12.8124 23.9938C12.9496 24.0121 13.0893 23.9897 13.2139 23.9293C13.3385 23.869 13.4426 23.7733 13.5133 23.6542L15.8477 19.6831L19.0783 22.9137C19.2106 23.0452 19.3896 23.119 19.5761 23.119C19.7626 23.119 19.9416 23.0452 20.0738 22.9137L22.9143 20.0733C23.0458 19.941 23.1196 19.7621 23.1196 19.5755C23.1196 19.389 23.0458 19.21 22.9143 19.0778L19.6519 15.8154L23.6437 13.5182C23.7647 13.4491 23.8626 13.3457 23.9249 13.2211C23.9873 13.0964 24.0113 12.9561 23.9941 12.8178C23.9768 12.6795 23.919 12.5494 23.828 12.4439C23.7369 12.3384 23.6167 12.2622 23.4824 12.2249L9.12992 8.25931C9.07689 8.24426 9.02229 8.23547 8.96721 8.23312ZM0.703769 11.2294C0.611059 11.2297 0.519328 11.2483 0.433814 11.2842C0.3483 11.32 0.270677 11.3723 0.205378 11.4381C0.140078 11.5039 0.0883807 11.5819 0.0532371 11.6677C0.0180935 11.7535 0.000191971 11.8454 0.000554721 11.9381C0.000917674 12.1246 0.0750789 12.3034 0.206839 12.4354C0.338599 12.5674 0.51725 12.6419 0.703769 12.6427H4.59626C4.68909 12.643 4.78107 12.6251 4.86695 12.5899C4.95283 12.5546 5.03092 12.5028 5.09675 12.4374C5.16258 12.3719 5.21486 12.2941 5.25059 12.2085C5.28632 12.1228 5.30481 12.0309 5.30499 11.9381C5.30535 11.8449 5.28727 11.7526 5.25178 11.6664C5.21629 11.5803 5.1641 11.502 5.09822 11.4361C5.03234 11.3702 4.95406 11.3181 4.86791 11.2826C4.78176 11.2471 4.68944 11.229 4.59626 11.2294H0.703769Z" fill="white"/>
</svg>
